<svg xmlns="http://www.w3.org/2000/svg" viewBox="0 0 484.92 180.27"><defs><style>.cls-1{fill:#e60d2e;}.cls-1,.cls-2{fill-rule:evenodd;}.cls-2{fill:#fff;}</style></defs><title>Ресурс 4</title><g id="Слой_2" data-name="Слой 2"><g id="Foreground"><path class="cls-1" d="M0,51.4A51.4,51.4,0,0,1,51.4,0H433.52a51.4,51.4,0,0,1,51.4,51.4V180.27H51.4A51.4,51.4,0,0,1,0,128.87Z"/><path class="cls-2" d="M415.62,92.66c-1.08-.09-2.57-.18-4.46-.27a47.58,47.58,0,0,0-6.23.14,44.39,44.39,0,0,0-6.63,1.08,19.1,19.1,0,0,0-6.09,2.3,14.89,14.89,0,0,0-4.59,4.33,11.18,11.18,0,0,0-1.76,6.49q-.15,5.82,3.11,8.66a20.15,20.15,0,0,0,8.11,4.06,45.52,45.52,0,0,0,9.88,1.08h8.66Zm17.46,38.7H404.93a136.25,136.25,0,0,1-13.8-.68,35.59,35.59,0,0,1-11.63-3.11,20.28,20.28,0,0,1-8.26-7q-3-4.61-3-12.58,0-8.92,4.46-14.34a28.42,28.42,0,0,1,11.5-8.12,49,49,0,0,1,15.29-3.38,107.3,107.3,0,0,1,16.1-.14,12.77,12.77,0,0,0-5.68-10q-5-3.66-15.43-3.65h-11.9V60.58a20.58,20.58,0,0,1,3.52-1.49A31,31,0,0,1,390.45,58a34.49,34.49,0,0,1,6.09-.63q11.91,0,19.08,2.7t11,6.5a18.87,18.87,0,0,1,5.14,8.39,27.94,27.94,0,0,1,1.36,8.11ZM304.46,83.05a24.81,24.81,0,0,1,1.08-7.57,22.19,22.19,0,0,1,3-6.23,19.9,19.9,0,0,1,4.46-4.6,29.29,29.29,0,0,1,5.28-3.11,36.47,36.47,0,0,1,11.37-3.38c3.88-.45,6.18-.55,10.14-.67,4.33-.14,9.84,0,11.11.06a37.86,37.86,0,0,1,4.18.48c4.8.93,6.9,2.43,6.9,2.43v7.85H343.29c-1.17,0-2.43,0-3.79.13a31.6,31.6,0,0,0-4.06.54,30.29,30.29,0,0,0-4.19,1.09,16.29,16.29,0,0,0-3.52,1.75,11.8,11.8,0,0,0-3.65,3.66,13.55,13.55,0,0,0-2.17,8.11V105q0,5.14,2.17,8.12a11.66,11.66,0,0,0,3.65,3.65,15.66,15.66,0,0,0,3.52,1.76,30.29,30.29,0,0,0,4.19,1.09,31.37,31.37,0,0,0,4.06.54c1.35.09,2.62.13,3.79.13H362v7.85s-2.1,1.5-6.9,2.43a37.86,37.86,0,0,1-4.18.48c-1.27.1-6.78.2-11.11.06-4-.12-6.27-.22-10.15-.67A36.49,36.49,0,0,1,318.26,127,29,29,0,0,1,313,123.9a19.9,19.9,0,0,1-4.46-4.6,21.92,21.92,0,0,1-3-6.23,24.81,24.81,0,0,1-1.08-7.57V83.05ZM99.19,92.66c-1.08-.09-2.57-.18-4.46-.27a47.58,47.58,0,0,0-6.23.14,44.39,44.39,0,0,0-6.63,1.08,19.1,19.1,0,0,0-6.09,2.3,15,15,0,0,0-4.6,4.33,11.26,11.26,0,0,0-1.76,6.49q-.14,5.82,3.12,8.66a20.15,20.15,0,0,0,8.11,4.06,45.52,45.52,0,0,0,9.88,1.08h8.66Zm17.45,38.7H88.5a136.25,136.25,0,0,1-13.8-.68,35.59,35.59,0,0,1-11.63-3.11,20.28,20.28,0,0,1-8.26-7q-3-4.61-3-12.58,0-8.92,4.47-14.34a28.42,28.42,0,0,1,11.5-8.12,49,49,0,0,1,15.29-3.38A107.3,107.3,0,0,1,99.19,82a12.77,12.77,0,0,0-5.68-10q-5-3.66-15.43-3.65H66.18V60.58a20.8,20.8,0,0,1,3.51-1.49A31.45,31.45,0,0,1,74,58a34.49,34.49,0,0,1,6.09-.63q11.91,0,19.08,2.7t11,6.5a18.87,18.87,0,0,1,5.14,8.39,28.24,28.24,0,0,1,1.35,8.11Zm154.7-90.93a9.54,9.54,0,0,1,2.84-6.63A9.27,9.27,0,0,1,281,31a8.83,8.83,0,0,1,6.63,2.84,8.83,8.83,0,0,1,2.84,6.63,9.25,9.25,0,0,1-2.84,6.77A9.05,9.05,0,0,1,281,49.91a9.51,9.51,0,0,1-6.77-2.71A10,10,0,0,1,271.34,40.43Zm.81,16.92v74h17.46v-74Zm-141.34,74V83.05a27.94,27.94,0,0,1,1.36-8.11,18.87,18.87,0,0,1,5.14-8.39q3.78-3.93,11-6.5t19.08-2.7a36.66,36.66,0,0,1,6.08.54A23.12,23.12,0,0,1,177.76,59a21.41,21.41,0,0,1,3.52,1.49v7.85H169.37Q159,68.31,154,72a12.33,12.33,0,0,0-5.66,10v.66l0,10v27.87l0,10.83Zm55.9,0V83.05a28.24,28.24,0,0,1,1.35-8.11,19,19,0,0,1,5.14-8.39q3.8-3.93,11-6.5a42.2,42.2,0,0,1,12.09-2.48,35.51,35.51,0,0,1,4.17-.22h2.35a33.36,33.36,0,0,1,4.17.23A41.89,41.89,0,0,1,239,60.05q7.17,2.58,11,6.5a19,19,0,0,1,5.14,8.39,28.24,28.24,0,0,1,1.35,8.11v48.31H239l0-10.83V92.66l0-10V82a12.76,12.76,0,0,0-5.67-10,18.88,18.88,0,0,0-11.73-3.56A19.59,19.59,0,0,0,209.84,72a12.75,12.75,0,0,0-5.66,10v.66l0,10v27.87l0,10.83Z"/><polygon class="cls-2" points="424.38 55.54 424.38 54.3 430.98 54.3 430.98 55.54 428.39 55.54 428.39 62.47 426.96 62.47 426.96 55.54 424.38 55.54"/><polygon class="cls-2" points="431.92 62.47 431.92 54.3 433.93 54.3 436.17 60.7 436.2 60.7 438.4 54.3 440.38 54.3 440.38 62.47 439.02 62.47 439.02 56.17 439 56.17 436.74 62.47 435.56 62.47 433.31 56.17 433.27 56.17 433.27 62.47 431.92 62.47"/></g></g></svg>